<?xml version="1.0" encoding="utf-8" standalone="no"?><!DOCTYPE svg PUBLIC "-//W3C//DTD SVG 20010904//EN" "http://www.w3.org/TR/2001/REC-SVG-20010904/DTD/svg10.dtd"><svg xmlns="http://www.w3.org/2000/svg" width="402" height="532" xmlns:xlink="http://www.w3.org/1999/xlink"><source><![CDATA[Created with Raphaël 2.1.2StartverificationYour OperationYes or No?EndYour Subroutineyesno]]></source><desc style="-webkit-tap-highlight-color: rgba(0, 0, 0, 0);">Created with Raphaël 2.1.2</desc><defs style="-webkit-tap-highlight-color: rgba(0, 0, 0, 0);"><path stroke-linecap="round" d="M5,0 0,2.5 5,5z" id="raphael-marker-block-obj7" style="-webkit-tap-highlight-color: rgba(0, 0, 0, 0);"></path><marker id="raphael-marker-endblock33-obj8" markerHeight="3" markerWidth="3" orient="auto" refX="1.5" refY="1.5" style="-webkit-tap-highlight-color: rgba(0, 0, 0, 0);"><use xlink:href="#raphael-marker-block-obj7" transform="rotate(180 1.5 1.5) scale(0.6,0.6)" stroke-width="1.6667" fill="black" stroke="none" style="-webkit-tap-highlight-color: rgba(0, 0, 0, 0);"></use></marker></defs><a style="-webkit-tap-highlight-color: rgba(0, 0, 0, 0);" xlink:href="https://www.zybuluo.com" target="_blank"></a><a xlink:href="https://www.zybuluo.com" style="-webkit-tap-highlight-color: rgba(0, 0, 0, 0);" target="_blank"><rect x="0" y="0" width="54.5" height="37" r="20" rx="20" ry="20" fill="#ffffff" stroke="#000000" style="-webkit-tap-highlight-color: rgba(0, 0, 0, 0);" stroke-width="2" class="flowchart" id="st" transform="matrix(1,0,0,1,55.7344,24.9922)"></rect><text x="10" y="18.5" text-anchor="start" font="10px &quot;Arial&quot;" stroke="none" fill="#000000" style="-webkit-tap-highlight-color: rgba(0, 0, 0, 0); text-anchor: start; font: 15px Arial;" id="stt" class="flowchartt" font-size="15px" transform="matrix(1,0,0,1,55.7344,24.9922)" stroke-width="1"><tspan dy="5.5" style="-webkit-tap-highlight-color: rgba(0, 0, 0, 0);">Start</tspan></text></a><path fill="#ffffff" stroke="#000000" d="M10,18.5L0,37L113.34375,37L133.34375,0L20,0L10,18.5" stroke-width="2" id="io" class="flowchart" style="-webkit-tap-highlight-color: rgba(0, 0, 0, 0);" transform="matrix(1,0,0,1,16.3125,136.9844)"></path><text x="30" y="18.5" text-anchor="start" font="10px &quot;Arial&quot;" stroke="none" fill="#000000" style="-webkit-tap-highlight-color: rgba(0, 0, 0, 0); text-anchor: start; font: 15px Arial;" id="iot" class="flowchartt" font-size="15px" transform="matrix(1,0,0,1,16.3125,136.9844)" stroke-width="1"><tspan dy="5.5" style="-webkit-tap-highlight-color: rgba(0, 0, 0, 0);">verification</tspan></text><rect x="0" y="0" width="122" height="37" r="0" rx="0" ry="0" fill="#ffffff" stroke="#000000" style="-webkit-tap-highlight-color: rgba(0, 0, 0, 0);" stroke-width="2" class="flowchart" id="op" transform="matrix(1,0,0,1,21.9844,248.9766)"></rect><text x="10" y="18.5" text-anchor="start" font="10px &quot;Arial&quot;" stroke="none" fill="#000000" style="-webkit-tap-highlight-color: rgba(0, 0, 0, 0); text-anchor: start; font: 15px Arial;" id="opt" class="flowchartt" font-size="15px" transform="matrix(1,0,0,1,21.9844,248.9766)" stroke-width="1"><tspan dy="5.5" style="-webkit-tap-highlight-color: rgba(0, 0, 0, 0);">Your Operation</tspan></text><path fill="#ffffff" stroke="#000000" d="M39.4921875,19.74609375L0,39.4921875L78.984375,78.984375L157.96875,39.4921875L78.984375,0L0,39.4921875" stroke-width="2" id="cond" class="flowchart" style="-webkit-tap-highlight-color: rgba(0, 0, 0, 0);" transform="matrix(1,0,0,1,4,339.9766)"></path><text x="44.4921875" y="39.4921875" text-anchor="start" font="10px &quot;Arial&quot;" stroke="none" fill="#000000" style="-webkit-tap-highlight-color: rgba(0, 0, 0, 0); text-anchor: start; font: 15px Arial;" id="condt" class="flowchartt" font-size="15px" transform="matrix(1,0,0,1,4,339.9766)" stroke-width="1"><tspan dy="5.5078125" style="-webkit-tap-highlight-color: rgba(0, 0, 0, 0);">Yes or No?</tspan></text><rect x="0" y="0" width="47.34375" height="37" r="20" rx="20" ry="20" fill="#ffffff" stroke="#000000" style="-webkit-tap-highlight-color: rgba(0, 0, 0, 0);" stroke-width="2" class="flowchart" id="e" transform="matrix(1,0,0,1,59.3125,493.9531)"></rect><text x="10" y="18.5" text-anchor="start" font="10px &quot;Arial&quot;" stroke="none" fill="#000000" style="-webkit-tap-highlight-color: rgba(0, 0, 0, 0); text-anchor: start; font: 15px Arial;" id="et" class="flowchartt" font-size="15px" transform="matrix(1,0,0,1,59.3125,493.9531)" stroke-width="1"><tspan dy="5.5" style="-webkit-tap-highlight-color: rgba(0, 0, 0, 0);">End</tspan></text><rect x="0" y="0" width="148.671875" height="37" r="0" rx="0" ry="0" fill="#ffffff" stroke="#000000" style="-webkit-tap-highlight-color: rgba(0, 0, 0, 0);" stroke-width="2" class="flowchart" id="sub" transform="matrix(1,0,0,1,220.6172,360.9688)"></rect><rect x="10" y="0" width="128.671875" height="37" r="0" rx="0" ry="0" fill="#ffffff" stroke="#000000" style="-webkit-tap-highlight-color: rgba(0, 0, 0, 0);" stroke-width="2" id="subi" transform="matrix(1,0,0,1,220.6172,360.9688)"></rect><text x="20" y="18.5" text-anchor="start" font="10px &quot;Arial&quot;" stroke="none" fill="#000000" style="-webkit-tap-highlight-color: rgba(0, 0, 0, 0); text-anchor: start; font: 15px Arial;" id="subt" class="flowchartt" font-size="15px" transform="matrix(1,0,0,1,220.6172,360.9688)" stroke-width="1"><tspan dy="5.5" style="-webkit-tap-highlight-color: rgba(0, 0, 0, 0);">Your Subroutine</tspan></text><path fill="none" stroke="#000000" d="M82.984375,61.9921875C82.984375,61.9921875,82.984375,119.98625144176185,82.984375,133.97505397458917" stroke-width="2" marker-end="url(#raphael-marker-endblock33-obj8)" style="-webkit-tap-highlight-color: rgba(0, 0, 0, 0);"></path><path fill="none" stroke="#000000" d="M82.984375,173.984375C82.984375,173.984375,82.984375,231.97843894176185,82.984375,245.96724147458917" stroke-width="2" marker-end="url(#raphael-marker-endblock33-obj8)" style="-webkit-tap-highlight-color: rgba(0, 0, 0, 0);"></path><path fill="none" stroke="#000000" d="M82.984375,285.9765625C82.984375,285.9765625,82.984375,325.63066244125366,82.984375,336.97700158460066" stroke-width="2" marker-end="url(#raphael-marker-endblock33-obj8)" style="-webkit-tap-highlight-color: rgba(0, 0, 0, 0);"></path><path fill="none" stroke="#000000" d="M82.984375,418.9609375C82.984375,418.9609375,82.984375,476.95500144176185,82.984375,490.9438039745892" stroke-width="2" marker-end="url(#raphael-marker-endblock33-obj8)" style="-webkit-tap-highlight-color: rgba(0, 0, 0, 0);"></path><text x="87.984375" y="428.9609375" text-anchor="start" font="10px &quot;Arial&quot;" stroke="none" fill="#000000" style="-webkit-tap-highlight-color: rgba(0, 0, 0, 0); text-anchor: start; font: 15px Arial;" font-size="15px" stroke-width="1"><tspan dy="5.5078125" style="-webkit-tap-highlight-color: rgba(0, 0, 0, 0);">yes</tspan></text><path fill="none" stroke="#000000" d="M161.96875,379.46875C161.96875,379.46875,205.62733346782625,379.46875,217.60786272022779,379.46875" stroke-width="2" marker-end="url(#raphael-marker-endblock33-obj8)" style="-webkit-tap-highlight-color: rgba(0, 0, 0, 0);"></path><text x="166.96875" y="369.46875" text-anchor="start" font="10px &quot;Arial&quot;" stroke="none" fill="#000000" style="-webkit-tap-highlight-color: rgba(0, 0, 0, 0); text-anchor: start; font: 15px Arial;" font-size="15px" stroke-width="1"><tspan dy="5.5" style="-webkit-tap-highlight-color: rgba(0, 0, 0, 0);">no</tspan></text><path fill="none" stroke="#000000" d="M294.953125,397.96875C294.953125,397.96875,294.953125,422.96875,294.953125,422.96875C294.953125,422.96875,400.9375,422.96875,400.9375,422.96875C400.9375,422.96875,400.9375,111.984375,400.9375,111.984375C400.9375,111.984375,82.984375,111.984375,82.984375,111.984375C82.984375,111.984375,82.984375,127.35781955718994,82.984375,133.99362277425826" stroke-width="2" marker-end="url(#raphael-marker-endblock33-obj8)" style="-webkit-tap-highlight-color: rgba(0, 0, 0, 0);"></path></svg>